<svg xmlns="http://www.w3.org/2000/svg" width="760" height="440" viewBox="0 0 760 440">
<rect width="100%" height="100%" fill="white"/>
<text x="380.0" y="22" text-anchor="middle" font-family="Arial" font-size="16" font-weight="700">Synthetic Energy Sampling: Mean Energy</text>
<line x1="72" y1="378" x2="732" y2="378" stroke="#111827"/>
<line x1="72" y1="34" x2="72" y2="378" stroke="#111827"/>
<text x="380.0" y="422" text-anchor="middle" font-family="Arial" font-size="12">Step size</text>
<text transform="translate(18 220.0) rotate(-90)" text-anchor="middle" font-family="Arial" font-size="12">Mean energy, lower is better</text>
<line x1="72.0" y1="378" x2="72.0" y2="383" stroke="#111827"/>
<text x="72.0" y="398" text-anchor="middle" font-family="Arial" font-size="11">0.005</text>
<line x1="122.8" y1="378" x2="122.8" y2="383" stroke="#111827"/>
<text x="122.8" y="398" text-anchor="middle" font-family="Arial" font-size="11">0.02</text>
<line x1="224.3" y1="378" x2="224.3" y2="383" stroke="#111827"/>
<text x="224.3" y="398" text-anchor="middle" font-family="Arial" font-size="11">0.05</text>
<line x1="393.5" y1="378" x2="393.5" y2="383" stroke="#111827"/>
<text x="393.5" y="398" text-anchor="middle" font-family="Arial" font-size="11">0.1</text>
<line x1="732.0" y1="378" x2="732.0" y2="383" stroke="#111827"/>
<text x="732.0" y="398" text-anchor="middle" font-family="Arial" font-size="11">0.2</text>
<line x1="67" y1="378.0" x2="72" y2="378.0" stroke="#111827"/>
<text x="63" y="382.0" text-anchor="end" font-family="Arial" font-size="11">0.00</text>
<line x1="72" y1="378.0" x2="732" y2="378.0" stroke="#e5e7eb"/>
<line x1="67" y1="309.2" x2="72" y2="309.2" stroke="#111827"/>
<text x="63" y="313.2" text-anchor="end" font-family="Arial" font-size="11">0.18</text>
<line x1="72" y1="309.2" x2="732" y2="309.2" stroke="#e5e7eb"/>
<line x1="67" y1="240.4" x2="72" y2="240.4" stroke="#111827"/>
<text x="63" y="244.4" text-anchor="end" font-family="Arial" font-size="11">0.35</text>
<line x1="72" y1="240.4" x2="732" y2="240.4" stroke="#e5e7eb"/>
<line x1="67" y1="171.6" x2="72" y2="171.6" stroke="#111827"/>
<text x="63" y="175.6" text-anchor="end" font-family="Arial" font-size="11">0.53</text>
<line x1="72" y1="171.6" x2="732" y2="171.6" stroke="#e5e7eb"/>
<line x1="67" y1="102.8" x2="72" y2="102.8" stroke="#111827"/>
<text x="63" y="106.8" text-anchor="end" font-family="Arial" font-size="11">0.70</text>
<line x1="72" y1="102.8" x2="732" y2="102.8" stroke="#e5e7eb"/>
<line x1="67" y1="34.0" x2="72" y2="34.0" stroke="#111827"/>
<text x="63" y="38.0" text-anchor="end" font-family="Arial" font-size="11">0.88</text>
<line x1="72" y1="34.0" x2="732" y2="34.0" stroke="#e5e7eb"/>
<circle cx="72.0" cy="89.5" r="3.5" fill="#2563eb"/>
<circle cx="122.8" cy="85.3" r="3.5" fill="#2563eb"/>
<circle cx="224.3" cy="82.1" r="3.5" fill="#2563eb"/>
<circle cx="393.5" cy="71.9" r="3.5" fill="#2563eb"/>
<circle cx="732.0" cy="59.5" r="3.5" fill="#2563eb"/>
<polyline points="72.0,89.5 122.8,85.3 224.3,82.1 393.5,71.9 732.0,59.5" fill="none" stroke="#2563eb" stroke-width="2.4"/>
<line x1="625" y1="46" x2="647" y2="46" stroke="#2563eb" stroke-width="2.4"/>
<text x="653" y="50" font-family="Arial" font-size="12">ULA</text>
<circle cx="72.0" cy="78.8" r="3.5" fill="#dc2626"/>
<circle cx="122.8" cy="80.7" r="3.5" fill="#dc2626"/>
<circle cx="224.3" cy="89.5" r="3.5" fill="#dc2626"/>
<circle cx="393.5" cy="91.1" r="3.5" fill="#dc2626"/>
<circle cx="732.0" cy="95.6" r="3.5" fill="#dc2626"/>
<polyline points="72.0,78.8 122.8,80.7 224.3,89.5 393.5,91.1 732.0,95.6" fill="none" stroke="#dc2626" stroke-width="2.4"/>
<line x1="625" y1="68" x2="647" y2="68" stroke="#dc2626" stroke-width="2.4"/>
<text x="653" y="72" font-family="Arial" font-size="12">MALA</text>
</svg>